# xmcd
#
# Track frame offsets:
#   150
#   33710
#   46185
#   67646
#   86124
#   109234
#   137859
#   155794
#   172243
#   187610
#   205790
#   224832
#   242631
#   266283
#   286415
#   300135
#   315255
#
# Disc length: 4498 seconds
#
# Revision: 0
# Processed by: cddbd v1.5.2PL0 Copyright (c) Steve Scherf et al.
# Submitted via: GXTranscoder 2.0.1939
#
DISCID=ed119011
DTITLE=Various Artist - Bounce 2007
DYEAR=2007
DGENRE=Hip Hop
TTITLE0=LCD Sound System - Morth American Scum
TTITLE1=Black Milk - Sound The Alarm
TTITLE2=The Clipse - Trill
TTITLE3=Timbaland - Bounce
TTITLE4=Ti - Stomp
TTITLE5=Trae - Couple Grand
TTITLE6=David Banner - Ko
TTITLE7=Tabi Bonney - The Pocket
TTITLE8=Tru Life - This Is The Life
TTITLE9=The Clipse - Wamp Wamp
TTITLE10=Beanie Sigel - When You Hear That
TTITLE11=Z-Ro, Devin the Dude and Juvenile - The Mule
TTITLE12=Kanye West - Get Them High
TTITLE13=Fat Freddy's Drop - Cay's Crays
TTITLE14=Sa-Ra - Feel The Bass
TTITLE15=The Clipse - Keys
TTITLE16=Kode 9 and The Spaceape - Fukkaz
EXTD=
EXTT0=
EXTT1=
EXTT2=
EXTT3=
EXTT4=
EXTT5=
EXTT6=
EXTT7=
EXTT8=
EXTT9=
EXTT10=
EXTT11=
EXTT12=
EXTT13=
EXTT14=
EXTT15=
EXTT16=
PLAYORDER=
